<svg xmlns="http://www.w3.org/2000/svg" xmlns:xlink="http://www.w3.org/1999/xlink" viewBox="0,0,256,256" width="90px" height="90px"><g fill="#fc6736" fill-rule="nonzero" stroke="none" stroke-width="1" stroke-linecap="butt" stroke-linejoin="miter" stroke-miterlimit="10" stroke-dasharray="" stroke-dashoffset="0" font-family="none" font-weight="none" font-size="none" text-anchor="none" style="mix-blend-mode: normal"><g transform="scale(8.53333,8.53333)"><path d="M15,1.09961c-1.025,0 -2.05008,0.38992 -2.83008,1.16992l-4.98047,4.98047h0.15039c1.27,0 2.45938,0.49062 3.35938,1.39063l3.49023,3.49023c0.45,0.44 1.17109,0.44 1.62109,0l3.49023,-3.49023c0.9,-0.9 2.08938,-1.39062 3.35938,-1.39062h0.15039l-4.98047,-4.98047c-0.78,-0.78 -1.80508,-1.16992 -2.83008,-1.16992zM5.68945,8.75l-3.41992,3.41992c-1.56,1.56 -1.56,4.10016 0,5.66016l3.41992,3.41992h1.65039c0.87,0 1.69078,-0.33922 2.30078,-0.94922l3.49023,-3.49023c1.03,-1.03 2.70828,-1.03 3.73828,0l3.49023,3.49023c0.61,0.61 1.43078,0.94922 2.30078,0.94922h1.65039l3.41992,-3.41992c1.56,-1.56 1.56,-4.10016 0,-5.66016l-3.41992,-3.41992h-1.65039c-0.87,0 -1.69078,0.33922 -2.30078,0.94922l-3.49023,3.49023c-0.51,0.51 -1.18914,0.77149 -1.86914,0.77149c-0.68,0 -1.35914,-0.26149 -1.86914,-0.77149l-3.49023,-3.49023c-0.61,-0.61 -1.43078,-0.94922 -2.30078,-0.94922zM15,17.53906c-0.2925,0 -0.58555,0.11008 -0.81055,0.33008l-3.49023,3.49023c-0.9,0.9 -2.08938,1.39063 -3.35938,1.39063h-0.15039l4.98047,4.98047c1.56,1.56 4.10016,1.56 5.66016,0l4.98047,-4.98047h-0.15039c-1.27,0 -2.45938,-0.49063 -3.35937,-1.39062l-3.49023,-3.49023c-0.225,-0.22 -0.51805,-0.33008 -0.81055,-0.33008z"></path></g></g></svg>